<?xml version="1.0" encoding="UTF-8" standalone="no"?>
<svg
   xmlns:dc="http://purl.org/dc/elements/1.1/"
   xmlns:cc="http://creativecommons.org/ns#"
   xmlns:rdf="http://www.w3.org/1999/02/22-rdf-syntax-ns#"
   xmlns:svg="http://www.w3.org/2000/svg"
   xmlns="http://www.w3.org/2000/svg"
   viewBox="0 0 108.4828 108.48293"
   height="108.48293"
   width="108.4828"
   xml:space="preserve"
   id="svg2"
   version="1.1"><metadata
     id="metadata8"><rdf:RDF><cc:Work
         rdf:about=""><dc:format>image/svg+xml</dc:format><dc:type
           rdf:resource="http://purl.org/dc/dcmitype/StillImage" /></cc:Work></rdf:RDF></metadata><defs
     id="defs6"><clipPath
       id="clipPath18"
       clipPathUnits="userSpaceOnUse"><path
         id="path16"
         d="M 0,81.362 H 81.362 V 0 H 0 Z" /></clipPath></defs><g
     transform="matrix(1.3333333,0,0,-1.3333333,0,108.48293)"
     id="g10"><g
       id="g12"><g
         clip-path="url(#clipPath18)"
         id="g14"><g
           transform="translate(52.6274,56.683)"
           id="g20"><path
             id="path22"
             style="fill:#ffffff;fill-opacity:1;fill-rule:nonzero;stroke:none"
             d="M 0,0 H -5.651 C -7.647,0 -8.062,-0.816 -8.062,-2.88 V -7.866 H 0 l -0.776,-8.756 H -8.062 V -42.77 h -10.442 v 26.039 h -5.432 v 8.865 h 5.432 v 6.98 c 0,6.551 3.504,9.972 11.274,9.972 l 7.23,0 z m -11.946,24.679 c -22.468,0 -40.681,-18.213 -40.681,-40.681 0,-22.467 18.213,-40.681 40.681,-40.681 22.467,0 40.681,18.214 40.681,40.681 0,22.468 -18.214,40.681 -40.681,40.681" /></g></g></g></g></svg>