<?xml version="1.0" encoding="UTF-8" standalone="no"?>
<svg
   xmlns:dc="http://purl.org/dc/elements/1.1/"
   xmlns:cc="http://creativecommons.org/ns#"
   xmlns:rdf="http://www.w3.org/1999/02/22-rdf-syntax-ns#"
   xmlns:svg="http://www.w3.org/2000/svg"
   xmlns="http://www.w3.org/2000/svg"
   viewBox="0 0 108.48293 108.48293"
   height="108.48293"
   width="108.48293"
   xml:space="preserve"
   id="svg2"
   version="1.1"><metadata
     id="metadata8"><rdf:RDF><cc:Work
         rdf:about=""><dc:format>image/svg+xml</dc:format><dc:type
           rdf:resource="http://purl.org/dc/dcmitype/StillImage" /></cc:Work></rdf:RDF></metadata><defs
     id="defs6"><clipPath
       id="clipPath18"
       clipPathUnits="userSpaceOnUse"><path
         id="path16"
         d="M 0,81.362 H 81.362 V 0 H 0 Z" /></clipPath></defs><g
     transform="matrix(1.3333333,0,0,-1.3333333,0,108.48293)"
     id="g10"><g
       id="g12"><g
         clip-path="url(#clipPath18)"
         id="g14"><g
           transform="translate(53.2781,49.5614)"
           id="g20"><path
             id="path22"
             style="fill:#ffffff;fill-opacity:1;fill-rule:nonzero;stroke:none"
             d="m 0,0 c -1.559,0 -2.822,1.264 -2.822,2.822 0,1.559 1.263,2.823 2.822,2.823 1.559,0 2.822,-1.264 2.822,-2.823 C 2.822,1.264 1.559,0 0,0 m -12.555,-21.81 c -6.67,0 -12.078,5.407 -12.078,12.078 0,6.67 5.408,12.077 12.078,12.077 6.67,0 12.077,-5.407 12.077,-12.077 0,-6.671 -5.407,-12.078 -12.077,-12.078 M 5.78,4.139 C 5.354,5.237 4.844,6.02 4.021,6.843 3.197,7.666 2.414,8.176 1.316,8.603 c -0.829,0.322 -2.074,0.705 -4.367,0.81 -2.48,0.113 -3.224,0.137 -9.504,0.137 -6.28,0 -7.024,-0.024 -9.504,-0.137 -2.293,-0.105 -3.539,-0.488 -4.367,-0.81 -1.098,-0.427 -1.882,-0.937 -2.704,-1.76 -0.824,-0.823 -1.333,-1.606 -1.76,-2.704 -0.322,-0.829 -0.705,-2.075 -0.81,-4.368 -0.113,-2.479 -0.137,-3.223 -0.137,-9.503 0,-6.281 0.024,-7.024 0.137,-9.504 0.105,-2.293 0.488,-3.539 0.81,-4.368 0.427,-1.097 0.936,-1.881 1.76,-2.704 0.822,-0.823 1.606,-1.333 2.704,-1.759 0.828,-0.323 2.074,-0.705 4.367,-0.81 2.48,-0.113 3.224,-0.137 9.504,-0.137 6.281,0 7.024,0.024 9.504,0.137 2.293,0.105 3.538,0.487 4.367,0.81 1.098,0.426 1.881,0.936 2.705,1.759 0.823,0.823 1.333,1.607 1.759,2.704 0.323,0.829 0.705,2.075 0.81,4.368 0.113,2.48 0.138,3.223 0.138,9.504 0,6.28 -0.025,7.024 -0.138,9.503 C 6.485,2.064 6.103,3.31 5.78,4.139" /></g><g
           transform="translate(40.7234,47.6688)"
           id="g24"><path
             id="path26"
             style="fill:#ffffff;fill-opacity:1;fill-rule:nonzero;stroke:none"
             d="m 0,0 c -4.33,0 -7.84,-3.51 -7.84,-7.84 0,-4.33 3.51,-7.84 7.84,-7.84 4.329,0 7.84,3.51 7.84,7.84 C 7.84,-3.51 4.329,0 0,0" /></g><g
           transform="translate(64.1013,30.1317)"
           id="g28"><path
             id="path30"
             style="fill:#ffffff;fill-opacity:1;fill-rule:nonzero;stroke:none"
             d="m 0,0 c -0.114,-2.503 -0.512,-4.213 -1.094,-5.709 -0.6,-1.547 -1.404,-2.858 -2.712,-4.166 -1.307,-1.308 -2.619,-2.112 -4.166,-2.713 -1.496,-0.581 -3.206,-0.978 -5.709,-1.093 -2.508,-0.114 -3.309,-0.141 -9.697,-0.141 -6.388,0 -7.189,0.027 -9.697,0.141 -2.504,0.115 -4.214,0.512 -5.71,1.093 -1.546,0.601 -2.858,1.405 -4.165,2.713 -1.308,1.308 -2.112,2.619 -2.713,4.166 -0.582,1.496 -0.979,3.206 -1.093,5.709 -0.115,2.509 -0.142,3.31 -0.142,9.697 0,6.388 0.027,7.189 0.142,9.698 0.114,2.503 0.511,4.212 1.093,5.709 0.601,1.546 1.405,2.858 2.713,4.166 1.307,1.307 2.619,2.111 4.165,2.712 1.496,0.581 3.206,0.979 5.71,1.094 2.508,0.114 3.309,0.141 9.697,0.141 6.388,0 7.189,-0.027 9.697,-0.141 2.503,-0.115 4.213,-0.513 5.709,-1.094 1.547,-0.601 2.859,-1.405 4.166,-2.712 1.308,-1.308 2.112,-2.62 2.712,-4.166 C -0.512,23.607 -0.114,21.898 0,19.395 0.114,16.886 0.142,16.085 0.142,9.697 0.142,3.31 0.114,2.509 0,0 m -23.42,51.23 c -22.468,0 -40.682,-18.213 -40.682,-40.681 0,-22.467 18.214,-40.681 40.682,-40.681 22.467,0 40.681,18.214 40.681,40.681 0,22.468 -18.214,40.681 -40.681,40.681" /></g></g></g></g></svg>