<?xml version="1.0" encoding="UTF-8" standalone="no"?>
<svg
   xmlns:dc="http://purl.org/dc/elements/1.1/"
   xmlns:cc="http://creativecommons.org/ns#"
   xmlns:rdf="http://www.w3.org/1999/02/22-rdf-syntax-ns#"
   xmlns:svg="http://www.w3.org/2000/svg"
   xmlns="http://www.w3.org/2000/svg"
   viewBox="0 0 108.48293 108.48293"
   height="108.48293"
   width="108.48293"
   xml:space="preserve"
   id="svg2"
   version="1.1"><metadata
     id="metadata8"><rdf:RDF><cc:Work
         rdf:about=""><dc:format>image/svg+xml</dc:format><dc:type
           rdf:resource="http://purl.org/dc/dcmitype/StillImage" /></cc:Work></rdf:RDF></metadata><defs
     id="defs6"><clipPath
       id="clipPath18"
       clipPathUnits="userSpaceOnUse"><path
         id="path16"
         d="M 0,81.362 H 81.362 V 0 H 0 Z" /></clipPath></defs><g
     transform="matrix(1.3333333,0,0,-1.3333333,0,108.48293)"
     id="g10"><g
       id="g12"><g
         clip-path="url(#clipPath18)"
         id="g14"><g
           transform="translate(61.8942,48.0048)"
           id="g20"><path
             id="path22"
             style="fill:#ffffff;fill-opacity:1;fill-rule:nonzero;stroke:none"
             d="m 0,0 c 0.592,-13.191 -9.244,-27.897 -26.656,-27.897 -5.295,0 -10.224,1.553 -14.375,4.214 4.976,-0.588 9.942,0.792 13.884,3.883 -4.104,0.076 -7.568,2.785 -8.759,6.513 1.467,-0.281 2.913,-0.2 4.234,0.16 -4.511,0.906 -7.623,4.969 -7.523,9.314 1.264,-0.702 2.712,-1.125 4.25,-1.173 -4.177,2.79 -5.36,8.305 -2.903,12.521 4.625,-5.675 11.535,-9.409 19.329,-9.799 -1.367,5.866 3.082,11.515 9.135,11.515 2.698,0 5.135,-1.139 6.846,-2.962 C -0.403,6.71 1.604,7.491 3.416,8.566 2.716,6.375 1.229,4.537 -0.707,3.378 1.189,3.604 2.997,4.108 4.679,4.854 3.422,2.972 1.832,1.32 0,0 m -21.213,33.357 c -22.468,0 -40.681,-18.213 -40.681,-40.681 0,-22.467 18.213,-40.681 40.681,-40.681 22.467,0 40.681,18.214 40.681,40.681 0,22.468 -18.214,40.681 -40.681,40.681" /></g></g></g></g></svg>