<?xml version="1.0" encoding="UTF-8" standalone="no"?>
<svg
   xmlns:dc="http://purl.org/dc/elements/1.1/"
   xmlns:cc="http://creativecommons.org/ns#"
   xmlns:rdf="http://www.w3.org/1999/02/22-rdf-syntax-ns#"
   xmlns:svg="http://www.w3.org/2000/svg"
   xmlns="http://www.w3.org/2000/svg"
   viewBox="0 0 108.4828 108.4828"
   height="108.4828"
   width="108.4828"
   xml:space="preserve"
   id="svg2"
   version="1.1"><metadata
     id="metadata8"><rdf:RDF><cc:Work
         rdf:about=""><dc:format>image/svg+xml</dc:format><dc:type
           rdf:resource="http://purl.org/dc/dcmitype/StillImage" /></cc:Work></rdf:RDF></metadata><defs
     id="defs6"><clipPath
       id="clipPath18"
       clipPathUnits="userSpaceOnUse"><path
         id="path16"
         d="M 0,81.362 H 81.362 V 0 H 0 Z" /></clipPath></defs><g
     transform="matrix(1.3333333,0,0,-1.3333333,0,108.4828)"
     id="g10"><g
       id="g12"><g
         clip-path="url(#clipPath18)"
         id="g14"><g
           transform="translate(52.5537,35.078)"
           id="g20"><path
             id="path22"
             style="fill:#ffffff;fill-opacity:1;fill-rule:nonzero;stroke:none"
             d="m 0,0 c -0.465,-1.319 -2.779,-2.585 -3.817,-2.671 -1.038,-0.098 -1.038,-0.844 -6.803,1.395 -5.753,2.26 -9.388,8.122 -9.668,8.49 -0.217,0.281 -1.45,1.914 -2.023,3.893 -0.173,0.617 -0.293,1.266 -0.293,1.914 0,2.769 1.461,4.132 1.98,4.694 0.52,0.562 1.136,0.703 1.515,0.703 0.378,0 0.756,-0.054 1.081,-0.054 0.335,0 0.811,0.195 1.276,-0.93 0.476,-1.124 1.611,-3.893 1.752,-4.175 0.141,-0.281 0.238,-0.606 0.043,-0.984 -0.13,-0.27 -0.227,-0.465 -0.356,-0.671 -0.066,-0.086 -0.13,-0.172 -0.207,-0.27 -0.292,-0.324 -0.594,-0.725 -0.853,-0.984 -0.281,-0.281 -0.574,-0.584 -0.249,-1.146 0.324,-0.563 1.471,-2.401 3.146,-3.883 2.163,-1.925 3.992,-2.509 4.554,-2.79 0.573,-0.281 0.898,-0.238 1.233,0.14 0.325,0.368 1.417,1.634 1.795,2.196 0.378,0.562 0.757,0.476 1.277,0.281 C -4.099,4.964 -1.318,3.602 -0.746,3.32 -0.184,3.039 0.195,2.898 0.336,2.671 0.477,2.434 0.477,1.309 0,0 m -11.334,27.222 c -10.068,0 -18.375,-7.647 -19.326,-17.402 -0.065,-0.616 -0.098,-1.244 -0.098,-1.871 0,-4.218 1.374,-8.122 3.699,-11.302 l -2.422,-7.159 7.462,2.379 c 3.072,-2.022 6.738,-3.19 10.685,-3.19 10.707,0 19.424,8.641 19.424,19.272 0,0.509 -0.022,1.006 -0.065,1.504 -0.779,9.928 -9.16,17.769 -19.359,17.769" /></g><g
           transform="translate(41.2197,20.099)"
           id="g24"><path
             id="path26"
             style="fill:#ffffff;fill-opacity:1;fill-rule:nonzero;stroke:none"
             d="m 0,0 c -4.045,0 -7.852,1.039 -11.161,2.855 l -12.794,-4.066 4.164,12.296 c -2.099,3.461 -3.31,7.506 -3.31,11.843 0,0.335 0.011,0.671 0.022,1.006 0.541,12.199 10.664,21.922 23.079,21.922 12.567,0 22.777,-9.95 23.091,-22.344 0.011,-0.195 0.011,-0.389 0.011,-0.584 C 23.102,10.264 12.762,0 0,0 m -0.539,61.263 c -22.467,0 -40.681,-18.213 -40.681,-40.681 0,-22.467 18.214,-40.681 40.681,-40.681 22.468,0 40.682,18.214 40.682,40.681 0,22.468 -18.214,40.681 -40.682,40.681" /></g></g></g></g></svg>